<svg xmlns="http://www.w3.org/2000/svg" viewBox="0 0 720 520" role="img" aria-labelledby="title desc">
  <title id="title">Ilustracion educativa de ciberseguridad</title>
  <desc id="desc">Un telefono, un escudo, mensajes y nodos conectados para representar lectura y exploracion segura en internet.</desc>
  <defs>
    <linearGradient id="bg" x1="0" x2="1" y1="0" y2="1">
      <stop offset="0" stop-color="#fff8ed"/>
      <stop offset="1" stop-color="#dbeef3"/>
    </linearGradient>
    <linearGradient id="screen" x1="0" x2="1" y1="0" y2="1">
      <stop offset="0" stop-color="#2c6e8a"/>
      <stop offset="1" stop-color="#1a1814"/>
    </linearGradient>
    <filter id="shadow" x="-20%" y="-20%" width="140%" height="140%">
      <feDropShadow dx="0" dy="16" stdDeviation="18" flood-color="#1a1814" flood-opacity=".22"/>
    </filter>
  </defs>
  <rect width="720" height="520" rx="28" fill="url(#bg)"/>
  <path d="M63 403c74-90 134-109 196-91 50 15 70 54 124 45 76-13 87-96 162-99 52-2 91 35 123 80v122H63z" fill="#fdf3e7"/>
  <path d="M111 120h147m-147 35h92m360-10h54m-81 36h102m-76 225h52m-92 34h118" fill="none" stroke="#d4cfc6" stroke-width="8" stroke-linecap="round"/>
  <g filter="url(#shadow)">
    <rect x="254" y="64" width="218" height="390" rx="34" fill="#1a1814"/>
    <rect x="273" y="94" width="180" height="310" rx="20" fill="url(#screen)"/>
    <circle cx="363" cy="428" r="12" fill="#f5f3ee"/>
    <rect x="329" y="78" width="68" height="8" rx="4" fill="#6b6560"/>
  </g>
  <g transform="translate(303 134)">
    <path d="M60 0 120 24v53c0 54-36 86-60 96-24-10-60-42-60-96V24z" fill="#fdf3e7" stroke="#ffdfb7" stroke-width="8"/>
    <path d="m39 88 17 18 35-47" fill="none" stroke="#c0392b" stroke-width="12" stroke-linecap="round" stroke-linejoin="round"/>
  </g>
  <g fill="#ffffff" opacity=".9">
    <rect x="301" y="335" width="124" height="14" rx="7"/>
    <rect x="317" y="361" width="92" height="14" rx="7"/>
  </g>
  <g stroke="#2c6e8a" stroke-width="5" stroke-linecap="round">
    <path d="M226 161c-44 0-72 19-84 58"/>
    <path d="M501 158c39 7 64 31 74 72"/>
    <path d="M215 362c-35-5-62-28-81-68"/>
    <path d="M506 355c37-6 68-27 92-63"/>
  </g>
  <g>
    <circle cx="133" cy="239" r="44" fill="#ffffff" stroke="#2c6e8a" stroke-width="7"/>
    <path d="M113 238h40m-20-20v40" stroke="#2c6e8a" stroke-width="7" stroke-linecap="round"/>
    <circle cx="585" cy="252" r="44" fill="#ffffff" stroke="#e67e22" stroke-width="7"/>
    <path d="M566 241h38v27h-38zm8 0v-10c0-10 7-17 17-17s17 7 17 17v10" fill="none" stroke="#e67e22" stroke-width="7" stroke-linejoin="round"/>
    <circle cx="176" cy="356" r="38" fill="#ffffff" stroke="#c0392b" stroke-width="7"/>
    <path d="M158 358h36m-18-18v36" stroke="#c0392b" stroke-width="7" stroke-linecap="round" transform="rotate(45 176 358)"/>
    <circle cx="544" cy="373" r="38" fill="#ffffff" stroke="#2c6e8a" stroke-width="7"/>
    <path d="M526 374c12-18 25-18 38 0M529 354c10 8 20 8 30 0" fill="none" stroke="#2c6e8a" stroke-width="7" stroke-linecap="round"/>
  </g>
  <g fill="#1a1814" opacity=".82">
    <circle cx="229" cy="162" r="7"/>
    <circle cx="500" cy="158" r="7"/>
    <circle cx="215" cy="362" r="7"/>
    <circle cx="506" cy="355" r="7"/>
  </g>
  <g>
    <rect x="70" y="75" width="126" height="34" rx="17" fill="#c0392b"/>
    <rect x="536" y="79" width="112" height="34" rx="17" fill="#2c6e8a"/>
    <rect x="76" y="430" width="168" height="34" rx="17" fill="#e67e22"/>
    <rect x="475" y="438" width="146" height="34" rx="17" fill="#c0392b"/>
  </g>
</svg>
