<svg xmlns="http://www.w3.org/2000/svg" viewBox="0 0 360 220" role="img" aria-labelledby="title desc">
  <title id="title">Phishing</title>
  <desc id="desc">Un correo sospechoso con un anzuelo digital.</desc>
  <rect width="360" height="220" rx="18" fill="#fff8ed"/>
  <rect x="58" y="53" width="210" height="124" rx="18" fill="#fff" stroke="#d4cfc6" stroke-width="4"/>
  <path d="m72 73 91 63 91-63" fill="none" stroke="#2c6e8a" stroke-width="9" stroke-linejoin="round"/>
  <path d="M247 121c22-2 39 8 42 25 4 22-17 34-36 25" fill="none" stroke="#c0392b" stroke-width="9" stroke-linecap="round"/>
  <path d="M253 169c4 16 25 16 29 1" fill="none" stroke="#c0392b" stroke-width="8" stroke-linecap="round"/>
  <circle cx="106" cy="111" r="8" fill="#e67e22"/>
  <circle cx="131" cy="111" r="8" fill="#e67e22"/>
  <circle cx="156" cy="111" r="8" fill="#e67e22"/>
  <path d="M269 49c22 13 36 31 43 54" fill="none" stroke="#2c6e8a" stroke-width="6" stroke-linecap="round" stroke-dasharray="1 13"/>
  <circle cx="312" cy="112" r="18" fill="#c0392b"/>
  <path d="M312 101v14" stroke="#fff" stroke-width="5" stroke-linecap="round"/>
  <circle cx="312" cy="123" r="3" fill="#fff"/>
</svg>
