<svg xmlns="http://www.w3.org/2000/svg" viewBox="0 0 360 220" role="img" aria-labelledby="title desc">
  <title id="title">Grooming</title>
  <desc id="desc">Un chat con senales de alerta y apoyo adulto.</desc>
  <rect width="360" height="220" rx="18" fill="#fff4ef"/>
  <rect x="55" y="50" width="168" height="127" rx="20" fill="#1a1814"/>
  <rect x="72" y="68" width="134" height="88" rx="12" fill="#fff"/>
  <rect x="87" y="86" width="76" height="17" rx="8.5" fill="#dbeef3"/>
  <rect x="119" y="113" width="72" height="17" rx="8.5" fill="#f4c7bd"/>
  <path d="M243 82c32 0 58 26 58 58 0 14-5 27-13 37h-74c-8-10-13-23-13-37 0-32 26-58 58-58z" fill="#2c6e8a"/>
  <circle cx="243" cy="118" r="22" fill="#fdf3e7"/>
  <path d="M207 177c7-24 21-38 36-38s29 14 36 38" fill="#fdf3e7"/>
  <circle cx="295" cy="63" r="22" fill="#c0392b"/>
  <path d="M295 51v16" stroke="#fff" stroke-width="6" stroke-linecap="round"/>
  <circle cx="295" cy="76" r="3.5" fill="#fff"/>
  <path d="M223 89c-19-12-37-12-55 0" fill="none" stroke="#e67e22" stroke-width="7" stroke-linecap="round"/>
</svg>
