<svg xmlns="http://www.w3.org/2000/svg" viewBox="0 0 360 220" role="img" aria-labelledby="title desc">
  <title id="title">Privacidad digital</title>
  <desc id="desc">Un escudo protegiendo datos personales.</desc>
  <rect width="360" height="220" rx="18" fill="#f3f7f5"/>
  <rect x="66" y="54" width="228" height="120" rx="18" fill="#fff" stroke="#d4cfc6" stroke-width="4"/>
  <path d="M180 43 250 72v47c0 50-31 78-70 94-39-16-70-44-70-94V72z" fill="#2c6e8a"/>
  <path d="M180 68 225 86v34c0 32-19 51-45 63-26-12-45-31-45-63V86z" fill="#fff8ed"/>
  <circle cx="180" cy="114" r="18" fill="#e67e22"/>
  <path d="M150 159c8-20 22-30 30-30s22 10 30 30" fill="none" stroke="#1a1814" stroke-width="8" stroke-linecap="round"/>
  <g fill="#c0392b">
    <circle cx="93" cy="87" r="7"/>
    <circle cx="264" cy="151" r="7"/>
  </g>
  <path d="M86 132h38M236 91h42" stroke="#d4cfc6" stroke-width="7" stroke-linecap="round"/>
</svg>
